<?xml version="1.0" encoding="utf-8"?>
<!-- Generator: Adobe Illustrator 26.0.3, SVG Export Plug-In . SVG Version: 6.00 Build 0)  -->
<svg version="1.1" id="Layer_1" xmlns="http://www.w3.org/2000/svg" xmlns:xlink="http://www.w3.org/1999/xlink" x="0px" y="0px"
	 viewBox="0 0 1098.6 418.02" style="enable-background:new 0 0 1098.6 418.02;" xml:space="preserve">
<style type="text/css">
	.st0{fill:#F11414;}
</style>
<g>
	<g>
		<path class="st0" d="M901.56,294.22c-13.4,18.25-25.82,37.37-37.4,56.99l28.42,56.23h79.52l-65.3-120.2
			C905.03,289.57,903.27,291.89,901.56,294.22z"/>
		<path class="st0" d="M866.52,213.6l-33.77-66.28h-78.41l57.9,109.15C829.65,241.38,847.73,227.05,866.52,213.6z"/>
		<path class="st0" d="M1073.76,142.48c8.22-1.07,16.51-1.78,24.84-2.1c-76.77-2.31-151.16,28.37-214.3,70.21
			C803.07,266,734.35,337.65,677.63,418.02h41.61c5.22-8.12,10.62-16.21,16.16-24.26h60.21c-4.68,8.02-9.27,16.09-13.69,24.26h38.46
			c4.36-9.46,8.89-18.85,13.63-28.16c17.85-34.72,38.16-68.68,61.3-100.22c2.83-3.86,5.73-7.68,8.67-11.48h0.33v-0.43
			c15.61-20.16,32.76-39.48,51.33-56.74c38.3-36.01,84.11-65.1,135.21-78.89c-4.42,0.83-8.82,1.81-13.21,2.84L1073.76,142.48z
			 M1076.44,145.22c-1.43,0.34-2.86,0.68-4.28,1.04l-5-2.84c1.74-0.27,3.49-0.52,5.24-0.75L1076.44,145.22z M1041.1,148.65
			c3.47-0.86,6.96-1.66,10.46-2.4l9.65,3.07c-1.77,0.53-3.55,1.05-5.31,1.62L1041.1,148.65z M1051.31,152.47
			c-2.35,0.79-4.7,1.61-7.03,2.46h-25.19c5.48-1.77,11-3.4,16.55-4.88L1051.31,152.47z M1056.03,145.35
			c2.54-0.49,5.08-0.95,7.63-1.37l5.46,3.11c-1.38,0.37-2.75,0.73-4.13,1.12L1056.03,145.35z M895.45,258.22H852.1
			c4.42-4.05,8.88-8.04,13.39-11.95h41.66C903.19,250.19,899.29,254.17,895.45,258.22z M889.61,226.33
			c4.27-3.34,8.57-6.61,12.91-9.82h37.53c-3.9,3.21-7.76,6.48-11.56,9.82H889.61z M921.31,203.23c5.74-3.83,11.58-7.55,17.51-11.13
			h33.88c-5.32,3.59-10.56,7.29-15.7,11.13H921.31z M795.81,316h51.3c-4.52,6.01-8.94,12.09-13.28,18.24h-53.52
			C785.39,328.09,790.55,322,795.81,316z M749.56,373.83c4.83-6.61,9.77-13.16,14.81-19.66h55.84c-4.29,6.49-8.49,13.04-12.6,19.66
			H749.56z M862.59,296.06h-48.71c5.7-6.07,11.5-12.05,17.38-17.91h46.22C872.41,284.04,867.46,290.02,862.59,296.06z
			 M986.41,183.24h-32.22c6.73-3.69,13.56-7.2,20.49-10.51h30.18c-0.69,0.35-1.31,0.66-1.82,0.9
			C999.07,175.96,990.82,180.61,986.41,183.24z M1017.92,166.08h-28.55c5.58-2.38,11.22-4.63,16.91-6.72h26.65
			c-4,1.66-7.98,3.37-11.89,5.21C1020.24,164.94,1019.16,165.47,1017.92,166.08z"/>
		<path d="M0,187.76l47.46-166.8l34.33,64.36L52.02,188.03L0,187.76z M186.64,93.64l32.98-93.59h68.65l-56.85,187.98h-80.72
			L55.24,0.05h67.04c3.22-0.35,7.55,1.25,13,4.83c5.45,3.58,10.06,8.67,13.81,15.29L186.64,93.64z"/>
		<path d="M308.22,0.32l237.33-0.27l-14.21,46.93H379.81l-26.28,87.42c-0.36,1.43-0.05,3.18,0.94,5.23
			c0.98,2.05,2.19,3.08,3.62,3.08c0.89,0,3.75,0,8.58,0s10.86-0.04,18.1-0.14c7.24-0.09,15.33-0.18,24.27-0.27
			c8.94-0.09,17.97-0.14,27.08-0.14c9.12,0,17.97-0.04,26.55-0.13c8.58-0.09,16.13-0.14,22.66-0.14c6.53,0,11.66,0.05,15.42,0.14
			c3.75,0.09,5.36,0.22,4.83,0.4l-13.41,45.32H294c-2.15,0-4.47-0.35-6.97-1.07c-2.51-0.71-4.96-1.7-7.38-2.95
			c-2.41-1.25-4.6-2.69-6.57-4.29c-1.97-1.61-3.58-3.31-4.83-5.09c-2.51-3.93-4.74-8.31-6.71-13.14c-1.97-4.83-2.23-9.47-0.81-13.94
			L308.22,0.32z M392.68,70.04h120.41l-15.55,41.83H377.67L392.68,70.04z"/>
		<path d="M538.91,187.76c-4.65,0.18-8.62-0.35-11.93-1.61c-3.31-1.25-5.94-3.04-7.91-5.37c-1.97-2.32-3.22-5-3.75-8.04
			c-0.54-3.04-0.45-6.35,0.27-9.93c6.43-24.67,12.33-47.11,17.7-67.31c2.32-8.58,4.6-17.07,6.84-25.48c2.23-8.4,4.29-16,6.17-22.79
			c1.88-6.79,3.44-12.56,4.69-17.3c1.25-4.74,2.15-7.73,2.69-8.98c2.86-7.51,6.47-12.87,10.86-16.09c4.38-3.22,8.89-4.83,13.54-4.83
			h190.12c3.39,0,6.3,0.81,8.72,2.41s4.24,3.75,5.5,6.43c1.25,2.69,1.79,5.77,1.61,9.25c-0.18,3.49-1.17,7.11-2.95,10.86
			l-50.41,158.75H538.91z M624.46,45.1c-4.11,14.84-7.77,28.34-10.99,40.5c-1.43,5.19-2.86,10.28-4.29,15.28
			c-1.43,5.01-2.72,9.61-3.89,13.81c-1.17,4.21-2.15,7.74-2.95,10.59c-0.8,2.86-1.3,4.65-1.47,5.37c-1.25,4.11-0.85,7.15,1.2,9.12
			c2.05,1.97,4.33,2.95,6.84,2.95h60.34l30.57-97.61H624.46z"/>
		<path d="M255.05,205.14h83.67l-45.86,143.2h149.91l-10.19,44.52H244.06c-5.55,0-11.18-1.48-16.89-4.42
			c-5.72-2.95-10.64-6.21-14.75-9.79c-1.43-1.25-2.54-3.44-3.35-6.57c-0.81-3.12-1.38-6.57-1.74-10.32
			c-0.35-3.75-0.44-7.55-0.27-11.4c0.18-3.84,0.63-7.01,1.34-9.52L255.05,205.14z"/>
		<path d="M477.62,392.85c-4.65,0.18-8.62-0.35-11.93-1.61c-3.31-1.25-5.95-3.04-7.91-5.37c-1.97-2.32-3.22-5-3.75-8.04
			c-0.54-3.04-0.45-6.35,0.27-9.93c6.43-24.67,12.33-47.11,17.7-67.31c2.32-8.58,4.6-17.07,6.84-25.48c2.23-8.4,4.29-16,6.17-22.79
			c1.87-6.79,3.44-12.56,4.69-17.3c1.25-4.74,2.15-7.73,2.68-8.98c2.86-7.51,6.48-12.87,10.86-16.09c4.38-3.22,8.89-4.83,13.54-4.83
			H706.9c3.39,0,6.3,0.81,8.72,2.41c2.41,1.61,4.24,3.75,5.5,6.43c1.25,2.69,1.79,5.77,1.61,9.25c-0.18,3.49-1.17,7.11-2.95,10.86
			l-50.42,158.75H477.62z M563.17,250.19c-4.12,14.84-7.78,28.34-10.99,40.5c-1.43,5.19-2.86,10.28-4.29,15.28
			c-1.43,5.01-2.73,9.61-3.89,13.81c-1.16,4.21-2.14,7.74-2.95,10.59c-0.81,2.86-1.3,4.65-1.48,5.37c-1.25,4.11-0.85,7.15,1.21,9.12
			c2.05,1.97,4.33,2.95,6.84,2.95h60.34l30.57-97.61H563.17z"/>
	</g>
</g>
</svg>
